<?xml version="1.0" encoding="utf-8"?>
<!-- Generator: Adobe Illustrator 16.0.4, SVG Export Plug-In . SVG Version: 6.00 Build 0)  -->
<!DOCTYPE svg PUBLIC "-//W3C//DTD SVG 1.1//EN" "http://www.w3.org/Graphics/SVG/1.1/DTD/svg11.dtd">
<svg version="1.1" id="Layer_1" xmlns="http://www.w3.org/2000/svg" xmlns:xlink="http://www.w3.org/1999/xlink" x="0px" y="0px"
	 width="201px" height="124px" viewBox="0 0 201 124" enable-background="new 0 0 201 124" xml:space="preserve">
<g>
	<defs>
		<rect id="SVGID_1_" x="9" y="9.211" width="185.896" height="106.789"/>
	</defs>
	<clipPath id="SVGID_2_">
		<use xlink:href="#SVGID_1_"  overflow="visible"/>
	</clipPath>
	<path clip-path="url(#SVGID_2_)" d="M52.361,112.241c0-0.215,0.04-0.413,0.119-0.595c0.079-0.184,0.186-0.344,0.321-0.482
		c0.135-0.139,0.293-0.248,0.477-0.328c0.182-0.079,0.376-0.118,0.583-0.118c0.214,0,0.412,0.039,0.595,0.118
		c0.182,0.08,0.343,0.189,0.482,0.328c0.138,0.139,0.248,0.299,0.327,0.482c0.079,0.182,0.119,0.38,0.119,0.595
		c0,0.214-0.04,0.413-0.119,0.595c-0.079,0.183-0.189,0.342-0.327,0.476c-0.139,0.136-0.3,0.241-0.482,0.316
		c-0.183,0.075-0.381,0.112-0.595,0.112c-0.207,0-0.401-0.037-0.583-0.112c-0.184-0.075-0.342-0.181-0.477-0.316
		c-0.135-0.134-0.242-0.293-0.321-0.476C52.401,112.654,52.361,112.455,52.361,112.241"/>
	<path clip-path="url(#SVGID_2_)" d="M63.562,114.872h0.535v-6.451h-0.535v-0.941h2.713c0.389,0,0.745,0.04,1.066,0.119
		s0.595,0.203,0.821,0.369c0.226,0.166,0.402,0.383,0.53,0.648c0.126,0.267,0.19,0.582,0.19,0.946c0,0.492-0.117,0.925-0.351,1.298
		c-0.234,0.372-0.589,0.627-1.065,0.762c0.222,0.047,0.438,0.127,0.648,0.238s0.393,0.254,0.548,0.428
		c0.154,0.176,0.279,0.377,0.375,0.607c0.095,0.23,0.143,0.488,0.143,0.773c0,0.357-0.075,0.669-0.226,0.935
		c-0.151,0.266-0.352,0.488-0.601,0.667c-0.25,0.178-0.538,0.313-0.864,0.405c-0.325,0.09-0.658,0.136-0.999,0.136h-2.928V114.872z
		 M65.085,108.421v2.725h1.286c0.468,0,0.839-0.131,1.112-0.393c0.274-0.262,0.411-0.607,0.411-1.035c0-0.469-0.143-0.802-0.428-1
		c-0.286-0.198-0.659-0.297-1.119-0.297H65.085z M65.085,112.086v2.786h1.321c0.246,0,0.476-0.028,0.691-0.084
		c0.214-0.056,0.402-0.141,0.565-0.256c0.163-0.114,0.292-0.256,0.387-0.423c0.096-0.166,0.143-0.364,0.143-0.595
		c0-0.246-0.056-0.46-0.167-0.643c-0.111-0.183-0.256-0.332-0.434-0.446c-0.179-0.115-0.387-0.2-0.625-0.257
		c-0.238-0.055-0.48-0.083-0.726-0.083H65.085z"/>
	<path clip-path="url(#SVGID_2_)" d="M66.49,115.905h-2.929l-0.093-0.094v-0.939l0.093-0.093h0.443v-6.266h-0.443l-0.093-0.093
		v-0.941l0.093-0.093h2.714c0.394,0,0.759,0.041,1.088,0.122c0.331,0.081,0.618,0.211,0.854,0.384
		c0.237,0.175,0.425,0.405,0.558,0.685c0.132,0.277,0.2,0.608,0.2,0.985c0,0.508-0.123,0.961-0.365,1.347
		c-0.197,0.313-0.477,0.549-0.836,0.703c0.13,0.044,0.258,0.1,0.384,0.166c0.22,0.116,0.413,0.268,0.573,0.448
		c0.162,0.183,0.293,0.396,0.392,0.634c0.099,0.24,0.149,0.513,0.149,0.809c0,0.372-0.08,0.702-0.238,0.98
		c-0.156,0.277-0.368,0.511-0.628,0.697c-0.258,0.184-0.558,0.324-0.892,0.418C67.181,115.857,66.836,115.905,66.49,115.905
		 M63.654,115.719h2.836c0.33,0,0.657-0.045,0.974-0.133c0.313-0.088,0.593-0.221,0.834-0.391c0.238-0.17,0.431-0.385,0.574-0.638
		c0.142-0.25,0.214-0.549,0.214-0.889c0-0.271-0.045-0.52-0.136-0.737c-0.09-0.219-0.21-0.414-0.358-0.581
		c-0.146-0.165-0.321-0.302-0.521-0.408c-0.204-0.107-0.414-0.185-0.625-0.229l-0.006-0.181c0.451-0.127,0.792-0.371,1.012-0.722
		c0.224-0.355,0.337-0.775,0.337-1.248c0-0.349-0.061-0.653-0.181-0.906c-0.12-0.25-0.289-0.458-0.501-0.613
		c-0.217-0.159-0.482-0.278-0.789-0.354c-0.313-0.076-0.664-0.116-1.043-0.116h-2.621v0.755h0.443l0.093,0.094v6.451l-0.093,0.093
		h-0.443V115.719z M66.406,114.965h-1.321l-0.093-0.093v-2.786l0.093-0.093h1.155c0.251,0,0.502,0.028,0.747,0.085
		c0.246,0.059,0.466,0.149,0.653,0.27c0.19,0.121,0.346,0.282,0.464,0.476c0.12,0.197,0.18,0.43,0.18,0.691
		c0,0.245-0.052,0.461-0.155,0.642c-0.102,0.179-0.242,0.33-0.413,0.452c-0.173,0.122-0.373,0.213-0.596,0.27
		C66.9,114.936,66.66,114.965,66.406,114.965 M65.178,114.779h1.228c0.238,0,0.462-0.027,0.667-0.081
		c0.201-0.052,0.381-0.133,0.535-0.242c0.15-0.105,0.271-0.237,0.36-0.393c0.086-0.151,0.131-0.336,0.131-0.549
		c0-0.23-0.05-0.425-0.153-0.595c-0.104-0.17-0.241-0.31-0.406-0.416c-0.169-0.108-0.37-0.19-0.596-0.244
		c-0.23-0.054-0.467-0.08-0.704-0.08h-1.062V114.779z M66.37,111.238h-1.285l-0.093-0.093v-2.725l0.093-0.094h1.261
		c0.478,0,0.873,0.105,1.172,0.314c0.311,0.216,0.469,0.577,0.469,1.076c0,0.452-0.148,0.823-0.439,1.103
		C67.257,111.098,66.861,111.238,66.37,111.238 M65.178,111.053h1.192c0.442,0,0.794-0.124,1.049-0.367
		c0.257-0.245,0.382-0.562,0.382-0.968c0-0.44-0.127-0.742-0.389-0.924c-0.268-0.187-0.627-0.28-1.066-0.28h-1.168V111.053z"/>
	<path clip-path="url(#SVGID_2_)" d="M71.453,114.872h0.97c0.548-1.311,1.097-2.605,1.649-3.887
		c0.551-1.283,1.101-2.577,1.649-3.887c0.547,1.31,1.097,2.604,1.648,3.887c0.551,1.281,1.101,2.576,1.649,3.887h0.981v0.939h-2.63
		v-0.939h0.661c-0.168-0.396-0.333-0.79-0.497-1.179c-0.163-0.389-0.329-0.782-0.497-1.179h-2.625l-1,2.357h0.685v0.939h-2.643
		V114.872z M75.828,109.682l-0.12-0.393c-0.007,0.017-0.015,0.044-0.023,0.083c-0.008,0.039-0.02,0.084-0.036,0.131
		c-0.016,0.056-0.036,0.115-0.059,0.179c-0.104,0.229-0.199,0.456-0.286,0.679c-0.08,0.19-0.163,0.396-0.25,0.619
		c-0.087,0.222-0.167,0.42-0.238,0.595h1.814L75.828,109.682z"/>
	<path clip-path="url(#SVGID_2_)" d="M79.999,115.905h-2.63l-0.093-0.094v-0.939l0.093-0.093h0.521l-0.915-2.171h-2.502
		l-0.921,2.171h0.544l0.093,0.093v0.939l-0.093,0.094h-2.642l-0.094-0.094v-0.939l0.094-0.093h0.908
		c0.546-1.306,1.092-2.594,1.625-3.831c0.552-1.285,1.107-2.593,1.648-3.885h0.171c0.541,1.292,1.095,2.6,1.648,3.885
		c0.545,1.266,1.092,2.554,1.625,3.831h0.92l0.094,0.093v0.939L79.999,115.905z M77.461,115.719h2.445v-0.754h-0.889l-0.086-0.058
		c-0.541-1.294-1.096-2.603-1.648-3.885c-0.524-1.219-1.05-2.456-1.563-3.683c-0.514,1.227-1.039,2.464-1.563,3.683
		c-0.54,1.254-1.095,2.562-1.649,3.885l-0.086,0.058h-0.877v0.754h2.457v-0.754h-0.591l-0.086-0.13l0.999-2.356l0.086-0.057h2.626
		l0.085,0.057l0.994,2.356l-0.086,0.13h-0.568V115.719z M76.629,111.667h-1.814l-0.086-0.128c0.071-0.174,0.15-0.372,0.238-0.594
		c0.087-0.224,0.17-0.431,0.25-0.621c0.087-0.221,0.184-0.451,0.287-0.681c0.02-0.055,0.039-0.112,0.054-0.166
		c0.017-0.047,0.027-0.087,0.035-0.123c0.009-0.049,0.019-0.083,0.031-0.106l0.173,0.015l0.117,0.387l0.801,1.889L76.629,111.667z
		 M74.954,111.481h1.536l-0.779-1.864c-0.01,0.031-0.022,0.063-0.034,0.098c-0.105,0.232-0.2,0.459-0.286,0.68
		c-0.081,0.19-0.164,0.397-0.25,0.619C75.073,111.184,75.011,111.34,74.954,111.481"/>
	<path clip-path="url(#SVGID_2_)" d="M86.938,114.872h0.619c-0.452-0.564-0.899-1.126-1.339-1.686
		c-0.44-0.559-0.883-1.124-1.327-1.695l-0.738,0.702v2.679h0.976v0.939h-2.88v-0.939h0.916v-6.451H82.25v-0.941h2.642v0.941h-0.738
		v2.32c-0.008,0.063-0.014,0.127-0.018,0.19s-0.01,0.128-0.018,0.19l0.226-0.273l2.547-2.428h-0.44v-0.941h2.642v0.941h-0.987
		l-2.56,2.439c0.532,0.675,1.061,1.343,1.589,2.006c0.528,0.662,1.058,1.331,1.59,2.006h0.857v0.939h-2.643V114.872z"/>
	<path clip-path="url(#SVGID_2_)" d="M89.581,115.905h-2.643l-0.093-0.094v-0.939l0.093-0.093h0.426
		c-0.412-0.514-0.818-1.024-1.219-1.535c-0.419-0.533-0.841-1.071-1.264-1.614l-0.635,0.604v2.546h0.883l0.093,0.093v0.939
		l-0.093,0.094h-2.88l-0.093-0.094v-0.939l0.093-0.093h0.823v-6.266h-0.823l-0.093-0.093v-0.941l0.093-0.093h2.642l0.093,0.093
		v0.941l-0.093,0.093h-0.645v2.227c-0.004,0.033-0.007,0.063-0.01,0.092l0.036-0.043l2.386-2.275H86.45l-0.093-0.093v-0.941
		l0.093-0.093h2.643l0.092,0.093v0.941l-0.092,0.093h-0.951l-2.471,2.355c0.514,0.652,1.026,1.298,1.536,1.938
		c0.519,0.651,1.039,1.307,1.562,1.972h0.812l0.093,0.093v0.939L89.581,115.905z M87.031,115.719h2.457v-0.754h-0.764l-0.073-0.035
		c-0.532-0.676-1.061-1.343-1.589-2.006c-0.528-0.662-1.058-1.331-1.589-2.006l0.009-0.125l2.559-2.44l0.064-0.025H89v-0.755h-2.457
		v0.755h0.347l0.065,0.161l-2.547,2.428l-0.219,0.266l-0.164-0.071c0.007-0.062,0.013-0.123,0.018-0.185
		c0.003-0.065,0.009-0.131,0.018-0.196l-0.001-2.309l0.093-0.094h0.645v-0.755h-2.456v0.755h0.823l0.093,0.094v6.451l-0.093,0.093
		h-0.823v0.754h2.694v-0.754h-0.883l-0.093-0.093v-2.679l0.029-0.067l0.738-0.702l0.137,0.01c0.445,0.571,0.887,1.137,1.327,1.696
		c0.441,0.56,0.886,1.12,1.339,1.684l-0.073,0.151h-0.526V115.719z"/>
	<polygon clip-path="url(#SVGID_2_)" points="91.843,114.872 92.51,114.872 92.51,108.421 91.843,108.421 91.843,107.479 
		97.639,107.479 97.639,109.312 96.699,109.312 96.699,108.421 93.497,108.421 93.497,111.146 97.176,111.146 97.176,112.086 
		93.497,112.086 93.497,114.872 96.866,114.872 96.866,113.979 97.806,113.979 97.806,115.812 91.843,115.812 	"/>
	<path clip-path="url(#SVGID_2_)" d="M97.807,115.905h-5.964l-0.093-0.094v-0.939l0.093-0.093h0.573v-6.266h-0.573l-0.093-0.093
		v-0.941l0.093-0.093h5.797l0.093,0.093v1.833l-0.093,0.093h-0.941l-0.093-0.093v-0.799H93.59v2.539h3.585l0.093,0.093v0.94
		l-0.093,0.094H93.59v2.6h3.182v-0.801l0.093-0.093h0.941l0.092,0.093v1.833L97.807,115.905z M91.936,115.719h5.777v-1.646h-0.754
		v0.8l-0.093,0.093h-3.368l-0.093-0.093v-2.786l0.093-0.093h3.584v-0.755h-3.584l-0.093-0.093v-2.725l0.093-0.094h3.201l0.093,0.094
		v0.799h0.755v-1.647h-5.611v0.755h0.574l0.093,0.094v6.451l-0.093,0.093h-0.574V115.719z"/>
	<path clip-path="url(#SVGID_2_)" d="M104.899,114.705v-1.381h0.94v1.06c0.206,0.159,0.453,0.296,0.738,0.41
		c0.285,0.115,0.606,0.173,0.965,0.173c0.206,0,0.403-0.029,0.594-0.089c0.191-0.06,0.36-0.147,0.506-0.263
		c0.148-0.114,0.265-0.259,0.353-0.435c0.087-0.174,0.131-0.376,0.131-0.606c0-0.413-0.096-0.73-0.287-0.952
		c-0.19-0.223-0.427-0.395-0.713-0.519c-0.286-0.122-0.596-0.228-0.93-0.315c-0.333-0.087-0.645-0.206-0.934-0.356
		c-0.29-0.151-0.532-0.361-0.726-0.631c-0.195-0.27-0.297-0.65-0.305-1.144c-0.008-0.261,0.028-0.522,0.107-0.785
		c0.08-0.262,0.21-0.5,0.393-0.714c0.184-0.214,0.425-0.389,0.728-0.523c0.301-0.135,0.669-0.202,1.105-0.202
		c0.144,0,0.298,0.008,0.465,0.023c0.166,0.016,0.342,0.048,0.523,0.096c0.183,0.047,0.371,0.118,0.566,0.214
		c0.193,0.095,0.386,0.222,0.576,0.381v1.166h-0.94v-0.702c-0.15-0.063-0.325-0.118-0.523-0.167
		c-0.197-0.047-0.417-0.071-0.654-0.071c-0.46,0-0.802,0.131-1.024,0.394c-0.221,0.262-0.333,0.571-0.333,0.929
		c0,0.237,0.056,0.43,0.167,0.576c0.111,0.147,0.258,0.271,0.441,0.369c0.181,0.1,0.39,0.185,0.625,0.256
		c0.232,0.072,0.471,0.149,0.714,0.232c0.242,0.084,0.479,0.183,0.713,0.298s0.442,0.267,0.625,0.452
		c0.183,0.187,0.33,0.417,0.44,0.69c0.111,0.273,0.167,0.613,0.167,1.018c0,0.357-0.065,0.679-0.195,0.964
		c-0.132,0.286-0.311,0.53-0.537,0.732c-0.226,0.202-0.49,0.356-0.792,0.464c-0.3,0.107-0.618,0.161-0.952,0.161
		c-0.301,0-0.594-0.034-0.881-0.102c-0.285-0.067-0.546-0.156-0.785-0.268c-0.238-0.111-0.45-0.238-0.636-0.381
		C105.147,115.015,105.004,114.864,104.899,114.705"/>
	<path clip-path="url(#SVGID_2_)" d="M107.638,116c-0.306,0-0.609-0.035-0.902-0.104c-0.291-0.068-0.561-0.161-0.804-0.274
		s-0.462-0.245-0.654-0.391c-0.195-0.149-0.348-0.311-0.456-0.476l-0.015-0.051v-1.382l0.093-0.092h0.941l0.092,0.092v1.014
		c0.191,0.142,0.419,0.266,0.68,0.371c0.274,0.11,0.586,0.166,0.931,0.166c0.195,0,0.387-0.028,0.566-0.085
		c0.179-0.056,0.339-0.139,0.478-0.247c0.135-0.105,0.243-0.241,0.324-0.402c0.08-0.161,0.121-0.352,0.121-0.566
		c0-0.387-0.089-0.687-0.264-0.892c-0.179-0.209-0.408-0.375-0.68-0.493c-0.277-0.118-0.585-0.223-0.915-0.31
		c-0.338-0.089-0.659-0.211-0.953-0.364c-0.302-0.157-0.559-0.38-0.759-0.659c-0.205-0.285-0.314-0.688-0.322-1.196
		c-0.007-0.27,0.03-0.545,0.112-0.813c0.083-0.273,0.22-0.524,0.41-0.748s0.445-0.408,0.76-0.548c0.312-0.14,0.697-0.21,1.144-0.21
		c0.144,0,0.302,0.008,0.473,0.023c0.172,0.017,0.353,0.05,0.539,0.099c0.188,0.048,0.385,0.122,0.583,0.22
		c0.199,0.098,0.4,0.23,0.597,0.393l0.032,0.072v1.166l-0.093,0.093h-0.939l-0.094-0.093v-0.64
		c-0.131-0.051-0.281-0.099-0.452-0.139c-0.191-0.045-0.404-0.068-0.634-0.068c-0.43,0-0.75,0.121-0.951,0.36
		c-0.207,0.242-0.312,0.535-0.312,0.868c0,0.216,0.05,0.391,0.148,0.521c0.103,0.136,0.241,0.252,0.41,0.343
		c0.177,0.096,0.381,0.18,0.607,0.249c0.236,0.072,0.475,0.15,0.718,0.233c0.246,0.085,0.489,0.187,0.726,0.302
		c0.241,0.12,0.461,0.278,0.649,0.471c0.19,0.194,0.346,0.437,0.46,0.72c0.115,0.286,0.174,0.64,0.174,1.054
		c0,0.368-0.068,0.706-0.204,1.003c-0.137,0.295-0.323,0.553-0.559,0.763c-0.233,0.209-0.511,0.371-0.823,0.482
		C108.31,115.944,107.979,116,107.638,116 M104.992,114.677c0.097,0.141,0.229,0.277,0.398,0.406
		c0.181,0.139,0.389,0.264,0.62,0.371c0.23,0.107,0.49,0.195,0.767,0.261c0.586,0.138,1.226,0.141,1.781-0.058
		c0.289-0.102,0.545-0.252,0.76-0.444c0.216-0.193,0.389-0.429,0.514-0.701s0.188-0.584,0.188-0.926c0-0.391-0.053-0.722-0.16-0.983
		c-0.105-0.261-0.248-0.482-0.421-0.659c-0.175-0.178-0.376-0.324-0.599-0.435c-0.229-0.112-0.465-0.211-0.703-0.293
		c-0.242-0.083-0.479-0.159-0.711-0.231c-0.241-0.073-0.456-0.162-0.644-0.263c-0.191-0.104-0.351-0.237-0.47-0.395
		c-0.123-0.163-0.185-0.376-0.185-0.633c0-0.379,0.118-0.712,0.354-0.989c0.239-0.282,0.608-0.426,1.094-0.426
		c0.243,0,0.473,0.025,0.678,0.073c0.208,0.052,0.384,0.107,0.538,0.173l0.056,0.085v0.609h0.755v-1.029
		c-0.173-0.142-0.35-0.256-0.525-0.342c-0.188-0.092-0.372-0.161-0.548-0.207c-0.178-0.047-0.349-0.078-0.509-0.094
		c-0.166-0.016-0.319-0.022-0.456-0.022c-0.421,0-0.78,0.065-1.068,0.194c-0.287,0.128-0.521,0.296-0.692,0.499
		c-0.174,0.203-0.3,0.432-0.375,0.681c-0.077,0.251-0.111,0.505-0.104,0.756c0.008,0.471,0.104,0.838,0.285,1.091
		c0.186,0.257,0.418,0.46,0.693,0.603c0.284,0.147,0.591,0.265,0.916,0.349c0.339,0.091,0.656,0.198,0.941,0.321
		c0.299,0.129,0.551,0.312,0.748,0.543c0.204,0.238,0.309,0.579,0.309,1.012c0,0.244-0.047,0.462-0.142,0.649
		c-0.093,0.187-0.22,0.343-0.377,0.466c-0.153,0.121-0.335,0.215-0.535,0.277c-0.198,0.062-0.407,0.094-0.622,0.094
		c-0.368,0-0.704-0.06-0.999-0.179c-0.293-0.118-0.55-0.261-0.761-0.424l-0.036-0.073v-0.967h-0.755V114.677z"/>
	<polygon clip-path="url(#SVGID_2_)" points="117.659,107.479 120.54,107.479 120.54,108.421 119.6,108.421 119.6,114.872 
		120.54,114.872 120.54,115.812 117.659,115.812 117.659,114.872 118.611,114.872 118.611,112.086 114.112,112.086 114.112,114.872 
		115.064,114.872 115.064,115.812 112.184,115.812 112.184,114.872 113.124,114.872 113.124,108.421 112.184,108.421 
		112.184,107.479 115.064,107.479 115.064,108.421 114.112,108.421 114.112,111.146 118.611,111.146 118.611,108.421 
		117.659,108.421 	"/>
	<path clip-path="url(#SVGID_2_)" d="M120.54,115.905h-2.881l-0.093-0.094v-0.939l0.093-0.093h0.86v-2.6h-4.314v2.6h0.859
		l0.093,0.093v0.939l-0.093,0.094h-2.88l-0.094-0.094v-0.939l0.094-0.093h0.847v-6.266h-0.847l-0.094-0.093v-0.941l0.094-0.093h2.88
		l0.093,0.093v0.941l-0.093,0.093h-0.859v2.539h4.314v-2.539h-0.86l-0.093-0.093v-0.941l0.093-0.093h2.881l0.093,0.093v0.941
		l-0.093,0.093h-0.848v6.266h0.848l0.093,0.093v0.939L120.54,115.905z M117.752,115.719h2.695v-0.754h-0.847l-0.095-0.093v-6.451
		l0.095-0.094h0.847v-0.755h-2.695v0.755h0.859l0.094,0.094v2.725l-0.094,0.093h-4.499l-0.092-0.093v-2.725l0.092-0.094h0.86v-0.755
		h-2.695v0.755h0.847l0.095,0.094v6.451l-0.095,0.093h-0.847v0.754h2.695v-0.754h-0.86l-0.092-0.093v-2.786l0.092-0.093h4.499
		l0.094,0.093v2.786l-0.094,0.093h-0.859V115.719z"/>
	<path clip-path="url(#SVGID_2_)" d="M122.802,111.658c0-0.579,0.11-1.129,0.333-1.648c0.222-0.52,0.525-0.975,0.91-1.363
		c0.386-0.39,0.836-0.696,1.351-0.923c0.516-0.226,1.068-0.339,1.656-0.339c0.577,0,1.128,0.113,1.646,0.339
		c0.521,0.227,0.976,0.533,1.363,0.923c0.389,0.389,0.697,0.844,0.923,1.363s0.339,1.069,0.339,1.648
		c0,0.587-0.113,1.138-0.339,1.653c-0.226,0.517-0.534,0.967-0.923,1.352c-0.388,0.385-0.842,0.688-1.363,0.91
		c-0.519,0.223-1.069,0.334-1.646,0.334c-0.588,0-1.141-0.111-1.656-0.334c-0.515-0.222-0.965-0.525-1.351-0.91
		c-0.385-0.385-0.688-0.835-0.91-1.352C122.912,112.796,122.802,112.245,122.802,111.658 M123.789,111.652
		c0,0.457,0.085,0.885,0.256,1.284c0.172,0.398,0.404,0.746,0.702,1.042c0.298,0.295,0.646,0.529,1.042,0.704
		c0.396,0.174,0.821,0.261,1.273,0.261c0.453,0,0.876-0.087,1.273-0.261c0.396-0.175,0.744-0.409,1.041-0.704
		c0.299-0.296,0.532-0.644,0.703-1.042c0.17-0.399,0.256-0.827,0.256-1.284c0-0.458-0.086-0.887-0.256-1.285
		c-0.171-0.398-0.404-0.748-0.703-1.047c-0.297-0.301-0.645-0.537-1.041-0.711c-0.397-0.174-0.82-0.261-1.273-0.261
		c-0.452,0-0.877,0.087-1.273,0.261s-0.744,0.41-1.042,0.711c-0.298,0.299-0.53,0.648-0.702,1.047
		C123.874,110.766,123.789,111.194,123.789,111.652"/>
	<path clip-path="url(#SVGID_2_)" d="M127.051,116c-0.597,0-1.167-0.115-1.691-0.341c-0.524-0.225-0.988-0.538-1.381-0.931
		c-0.391-0.392-0.704-0.855-0.93-1.38c-0.225-0.525-0.34-1.094-0.34-1.69c0-0.59,0.114-1.156,0.34-1.686
		c0.227-0.529,0.539-0.997,0.93-1.392c0.393-0.396,0.856-0.714,1.38-0.942c0.525-0.23,1.096-0.347,1.692-0.347
		c0.588,0,1.156,0.116,1.685,0.347c0.528,0.229,0.996,0.547,1.392,0.941c0.396,0.396,0.712,0.864,0.942,1.393
		c0.23,0.529,0.348,1.096,0.348,1.686c0,0.597-0.117,1.166-0.348,1.69c-0.229,0.524-0.547,0.988-0.942,1.381
		c-0.396,0.392-0.863,0.705-1.392,0.93C128.207,115.885,127.64,116,127.051,116 M127.051,107.478c-0.571,0-1.115,0.112-1.618,0.331
		c-0.502,0.221-0.946,0.524-1.321,0.903c-0.375,0.378-0.675,0.827-0.892,1.333c-0.216,0.507-0.326,1.049-0.326,1.613
		c0,0.57,0.11,1.114,0.326,1.617c0.216,0.502,0.516,0.947,0.891,1.322s0.819,0.675,1.322,0.891c0.501,0.216,1.046,0.326,1.618,0.326
		c0.564,0,1.106-0.11,1.612-0.326c0.505-0.216,0.955-0.516,1.334-0.891c0.379-0.376,0.682-0.821,0.902-1.322
		c0.221-0.503,0.331-1.047,0.331-1.617c0-0.564-0.11-1.106-0.332-1.611c-0.221-0.508-0.523-0.957-0.901-1.335
		c-0.38-0.379-0.829-0.683-1.335-0.903C128.156,107.59,127.614,107.478,127.051,107.478 M127.062,115.036
		c-0.464,0-0.904-0.09-1.312-0.269c-0.405-0.178-0.765-0.421-1.069-0.724s-0.548-0.663-0.723-1.071
		c-0.173-0.407-0.262-0.853-0.262-1.32c0-0.47,0.089-0.914,0.262-1.321c0.175-0.409,0.418-0.771,0.722-1.076
		c0.306-0.308,0.666-0.554,1.07-0.73c0.814-0.356,1.807-0.356,2.623,0c0.406,0.177,0.765,0.423,1.069,0.73
		c0.305,0.305,0.548,0.667,0.723,1.076c0.174,0.407,0.263,0.853,0.263,1.321c0,0.468-0.089,0.911-0.263,1.32
		c-0.175,0.409-0.418,0.77-0.724,1.071c-0.304,0.302-0.662,0.546-1.068,0.724C127.967,114.946,127.525,115.036,127.062,115.036
		 M127.062,108.441c-0.437,0-0.853,0.085-1.235,0.253c-0.385,0.168-0.726,0.4-1.014,0.691c-0.288,0.289-0.518,0.632-0.684,1.019
		c-0.164,0.384-0.248,0.804-0.248,1.248c0,0.442,0.084,0.862,0.248,1.248c0.165,0.386,0.396,0.727,0.683,1.012
		c0.288,0.286,0.629,0.517,1.015,0.686c0.764,0.334,1.707,0.334,2.472,0c0.385-0.169,0.726-0.4,1.013-0.686s0.518-0.626,0.684-1.012
		c0.165-0.386,0.248-0.806,0.248-1.248c0-0.443-0.083-0.863-0.248-1.248c-0.166-0.387-0.396-0.729-0.684-1.019
		c-0.288-0.29-0.629-0.522-1.013-0.691C127.916,108.526,127.499,108.441,127.062,108.441"/>
	<path clip-path="url(#SVGID_2_)" d="M133.586,114.872h0.535v-6.451h-0.535v-0.941h2.5c0.269,0,0.567,0.042,0.897,0.125
		c0.329,0.084,0.638,0.216,0.923,0.399c0.285,0.182,0.523,0.417,0.715,0.702c0.189,0.285,0.284,0.631,0.284,1.035
		c0,0.723-0.214,1.295-0.643,1.721c-0.428,0.424-1.047,0.636-1.856,0.636h-1.298v2.774h1.357v0.939h-2.88V114.872z M135.108,111.134
		h1.036c0.35,0,0.637-0.045,0.862-0.137c0.227-0.09,0.408-0.203,0.542-0.337c0.135-0.134,0.229-0.284,0.286-0.45
		c0.055-0.166,0.084-0.324,0.084-0.475c0-0.174-0.046-0.339-0.138-0.497s-0.215-0.299-0.368-0.421
		c-0.156-0.122-0.343-0.22-0.561-0.291c-0.219-0.07-0.45-0.105-0.696-0.105h-1.048V111.134z"/>
	<path clip-path="url(#SVGID_2_)" d="M136.467,115.905h-2.881l-0.094-0.094v-0.939l0.094-0.093h0.441v-6.266h-0.441l-0.094-0.093
		v-0.942l0.094-0.092h2.5c0.273,0,0.584,0.043,0.921,0.128c0.338,0.086,0.656,0.224,0.949,0.41c0.294,0.188,0.544,0.434,0.741,0.729
		c0.2,0.3,0.302,0.666,0.302,1.087c0,0.744-0.226,1.346-0.671,1.786c-0.443,0.44-1.092,0.664-1.922,0.664h-1.205v2.588h1.266
		l0.092,0.093v0.939L136.467,115.905z M133.679,115.719h2.694v-0.754h-1.265l-0.093-0.093v-2.774l0.093-0.093h1.298
		c0.78,0,1.383-0.205,1.791-0.61c0.408-0.403,0.615-0.961,0.615-1.653c0-0.385-0.091-0.715-0.269-0.983
		c-0.185-0.274-0.415-0.502-0.688-0.676c-0.275-0.176-0.577-0.307-0.895-0.388c-0.322-0.08-0.616-0.122-0.875-0.122h-2.407v0.755
		h0.441l0.095,0.094v6.451l-0.095,0.093h-0.441V115.719z M136.145,111.227h-1.036l-0.093-0.093v-2.713l0.093-0.094h1.048
		c0.254,0,0.497,0.037,0.726,0.109c0.227,0.075,0.424,0.179,0.589,0.308c0.163,0.129,0.294,0.279,0.391,0.447
		c0.1,0.173,0.15,0.355,0.15,0.544c0,0.159-0.03,0.329-0.088,0.504c-0.062,0.179-0.164,0.343-0.31,0.487
		c-0.144,0.143-0.338,0.264-0.571,0.357C136.807,111.179,136.506,111.227,136.145,111.227 M135.201,111.041h0.943
		c0.336,0,0.616-0.044,0.828-0.13c0.212-0.085,0.384-0.191,0.511-0.317c0.124-0.122,0.212-0.262,0.263-0.414
		c0.053-0.155,0.078-0.305,0.078-0.444c0-0.155-0.041-0.308-0.124-0.451c-0.085-0.146-0.202-0.279-0.346-0.395
		c-0.146-0.114-0.325-0.208-0.53-0.274c-0.209-0.067-0.434-0.102-0.668-0.102h-0.955V111.041z"/>
	<path clip-path="url(#SVGID_2_)" d="M147.095,112.241c0-0.215,0.04-0.413,0.119-0.595c0.079-0.184,0.187-0.344,0.321-0.482
		s0.293-0.248,0.476-0.328c0.184-0.079,0.377-0.118,0.584-0.118c0.214,0,0.412,0.039,0.596,0.118
		c0.182,0.08,0.343,0.189,0.481,0.328s0.248,0.299,0.327,0.482c0.079,0.182,0.119,0.38,0.119,0.595c0,0.214-0.04,0.413-0.119,0.595
		c-0.079,0.183-0.188,0.342-0.327,0.476c-0.139,0.136-0.3,0.241-0.481,0.316c-0.184,0.075-0.382,0.112-0.596,0.112
		c-0.207,0-0.4-0.037-0.584-0.112c-0.183-0.075-0.341-0.181-0.476-0.316c-0.135-0.134-0.242-0.293-0.321-0.476
		C147.135,112.654,147.095,112.455,147.095,112.241"/>
	<path clip-path="url(#SVGID_2_)" d="M156.968,73.56c0.073,0.311,0.139,0.623,0.186,0.936c0.164,1.04,0.205,2.076,0.136,3.095
		c4.01,1.513,6.045,3.02,6.045,4.207c0,3.82-21.031,10.944-61.239,10.944c-40.208,0-61.242-7.124-61.242-10.944
		c0-1.18,2.014-2.675,5.975-4.18c-0.314-1.229-0.415-2.507-0.296-3.812c-5.721,2.087-9.308,4.723-9.308,7.992
		c0,10.759,38.794,14.664,64.871,14.664c26.074,0,64.869-3.905,64.869-14.664C166.964,78.397,163.089,75.684,156.968,73.56"/>
	<path clip-path="url(#SVGID_2_)" d="M185.339,31.969c-1.136,0.986-2.485,1.84-4.004,2.518c9.679,3.025,9.841,5.586,9.841,5.732
		c0,0.175-0.219,3.832-16.905,7.598c-0.438,1.477-1.024,2.898-1.801,4.192c13.318-2.748,22.427-6.6,22.427-11.79
		C194.896,36.959,191.303,34.229,185.339,31.969"/>
	<path clip-path="url(#SVGID_2_)" d="M32.862,42.647c10.005,0.907,19.834-7.876,20.561-18.213c0.28-3.985-1.627-6.796-4.465-7.067
		c-2.518-0.241-3.418,1.795-3.418,1.795c2.205,0.223,3.649,2.226,3.347,5.314c-0.754,7.706-6.99,15.148-15.095,14.373
		c-4.52-0.431-7.178-3.544-6.438-8.752c1.176-8.275,8.124-16.842,16.968-16.185c4.474,0.332,6.043,2.726,6.043,2.726
		s0.511-0.542,0.586-1.35c0.195-2.112-1.475-4.538-6.422-5.12c-11.034-1.298-20.481,9.91-22.069,19.455
		C21.373,36.159,24.745,41.912,32.862,42.647"/>
	<path clip-path="url(#SVGID_2_)" d="M174.861,32.817c6.726-0.8,10.809-4.847,10.464-7.35c-0.1-0.716-0.486-1.118-0.783-1.214
		c-2.768,3.249-6.999,5.207-11.126,5.191c4.443-4.564,8.413-9.24,7.63-15.099c-0.454-3.4-2.88-5.512-5.778-5.077
		c-8.637,1.295-9.013,13.068-8.287,19.761c0.106,0.982,0.25,2.283,0.381,3.758c-0.057-0.005-0.112-0.015-0.17-0.015
		c-0.979,3.326-3.613,7.18-6.232,7.427c-1.426,0.135-2.155-0.479-2.371-2.862c-0.134-1.483,0.255-4.188,1.599-10.299
		c0,0-0.635-0.256-1.564-0.17c-1.629,0.151-2.859,1.073-3.324,3.332c-0.859,4.784-2.608,10.922-7.232,11.258
		c-1.954,0.143-3.083-0.959-3.232-3.165c-0.479-7.068,4.634-12.831,11.173-13.409c4.684-0.414,6.771,1.266,6.771,1.266
		s0.323-0.53,0.251-1.249c-0.197-1.976-2.287-4.036-7.15-3.584c-8.396,0.781-15.386,7.537-15.736,15.9
		c-2.198,2.451-5.817,5.189-9.91,5.366c-2.005,0.086-3.611-0.668-3.979-2.912c6.218-1.673,13.148-5.554,12.772-11.905
		c-0.181-3.063-2.507-4.772-5.876-4.516c-7.145,0.544-11.577,8.035-11.589,14.784c-2.268,2.369-5.837,4.924-9.953,4.975
		c-2.292,0.028-3.78-1.049-3.986-3.936c7.253-3.365,15.597-10.906,15.269-19.694c-0.119-3.185-2.073-5.345-5.125-5.002
		c-9.286,1.043-14.402,14.987-14.649,23.713c-0.002,0.049,0.002,0.095,0.001,0.143c-2.057,2.3-5.297,4.755-9.226,4.688
		c-2.769-0.046-4.404-1.715-4.906-4.391c8.036-0.699,12.303-4.146,12.326-8.84c0.013-2.435-1.419-4.331-4.61-4.778
		c0.892-0.981,2.993-3.624,3.021-7.189c0.019-2.572-1.994-4.663-4.598-4.476c-9.354,0.674-14.799,15.119-16.52,25.201
		c-1.592,2.073-3.686,3.719-5.518,3.625c-1.431-0.074-2.062-0.787-1.93-3.176c0.082-1.487,0.86-4.107,3.075-9.959
		c0,0-0.59-0.345-1.523-0.395c-1.632-0.087-2.982,0.647-3.769,2.815c-1.544,4.609-4.164,10.428-8.788,10.09
		c-1.954-0.143-2.911-1.397-2.739-3.601c0.551-7.063,6.448-12.023,12.998-11.646c4.692,0.27,6.51,2.236,6.51,2.236
		s0.396-0.479,0.429-1.201c0.09-1.983-1.675-4.325-6.55-4.583c-8.89-0.47-17.206,5.88-18.081,14.854
		c-0.386,3.951,1.645,7.264,6.105,7.598c5.516,0.413,8.276-3.732,8.276-3.732c-0.083,1.351,0.352,4.464,4.29,4.677
		c2.557,0.138,4.912-0.995,6.73-2.553c0.218,1.522,1.307,2.303,2.562,2.352c0.72,0.027,1.354-0.221,1.354-0.221
		c0.124-2.072,0.909-5.204,2.223-7.643c0.607,4.58,3.465,8.615,8.8,8.713c4.401,0.08,8.331-2.044,10.689-4.455
		c1.067,2.81,3.474,4.56,7.138,4.519c4.63-0.051,8.836-2.267,11.374-4.721c1.084,2.652,3.468,4.39,7.507,4.22
		c4.423-0.186,8.442-2.451,10.922-4.943c0.977,2.537,3.221,4.192,6.598,3.952c5.516-0.393,7.647-4.895,7.647-4.895
		c0.113,1.35,0.996,4.367,4.926,4.005c3.534-0.324,6.339-2.997,7.833-5.685c0.078,5.53-0.632,11.167-3.864,12.2
		c-0.988,0.314-1.909-0.543-2.016-1.666c-0.144-1.527,1.152-2.694,1.152-2.694s-0.636-0.572-1.742-0.468
		c-2.354,0.221-4.114,2.274-3.915,4.567c0.228,2.607,2.499,4.331,5.988,3.892c9.246-1.161,9.351-14.578,8.37-21.746
		C172.582,32.903,173.78,32.946,174.861,32.817 M117.034,18.455c1.099-0.024,1.714,0.682,1.743,1.899
		c0.136,5.369-5.117,11.733-10.944,14.792C108.683,27.876,113.139,18.541,117.034,18.455 M94.144,17.247
		c0.96,0.017,1.41,0.52,1.397,1.422c-0.08,5.324-6.528,7.418-10.793,13.012C86.733,25.516,90.852,17.19,94.144,17.247
		 M85.518,35.542c2.532-3.938,5.96-7.101,8.99-7.051c1.585,0.026,2.322,0.8,2.307,1.928C96.779,33.352,91.986,35.61,85.518,35.542
		 M132.583,26.892c1.487-0.072,2.043,0.755,2.102,1.882c0.165,3.2-3.684,6.208-8.642,7.834
		C126.203,31.907,129.282,27.051,132.583,26.892 M175.02,13.208c1.365-0.168,1.956,0.848,2.114,2.101
		c0.55,4.342-3.721,9.19-6.134,12.052C170.105,18.653,172.246,13.55,175.02,13.208"/>
	<path clip-path="url(#SVGID_2_)" d="M65.313,73.972c0.187-1.909,0.28-2.864,0.467-4.773c-0.701-0.622-1.496-1.139-2.387-1.551
		c-0.891-0.411-1.869-0.676-2.935-0.796c-1.211-0.136-2.366-0.056-3.47,0.24c-1.105,0.298-2.093,0.756-2.969,1.38
		c-0.875,0.624-1.605,1.396-2.187,2.319c-0.583,0.924-0.951,1.931-1.099,3.023c-0.151,1.121-0.065,2.196,0.266,3.227
		c0.329,1.031,0.848,1.97,1.559,2.811c0.71,0.842,1.586,1.543,2.629,2.1c1.043,0.557,2.197,0.907,3.459,1.048
		c1.081,0.122,2.113,0.073,3.091-0.143c0.979-0.216,1.885-0.562,2.718-1.034c-0.797-1.124-1.192-1.688-1.977-2.816
		c-0.993,0.589-2.148,0.812-3.458,0.665c-1.55-0.174-2.756-0.782-3.607-1.815c-0.853-1.034-1.19-2.224-1.021-3.564
		c0.171-1.366,0.79-2.434,1.846-3.208c1.055-0.773,2.334-1.072,3.846-0.902c0.814,0.091,1.568,0.326,2.264,0.704
		c-0.117,1.103-0.175,1.653-0.292,2.755C63.358,73.778,64.01,73.845,65.313,73.972"/>
	<path clip-path="url(#SVGID_2_)" d="M83.628,84.694c2.693,0.126,4.04,0.179,6.734,0.26c0.04-1.306,0.06-1.958,0.1-3.265
		c-1.364-0.041-2.045-0.064-3.408-0.117c0.19-4.892,0.285-7.338,0.475-12.229c-1.199-0.047-1.799-0.072-2.999-0.128
		c-0.015,0.33-0.059,0.659-0.133,0.987c-0.073,0.327-0.118,0.643-0.132,0.945c0.004-0.083-0.134-0.255-0.412-0.517
		c-0.279-0.262-0.659-0.536-1.138-0.822c-0.48-0.287-1.048-0.559-1.701-0.815c-0.653-0.258-1.37-0.409-2.151-0.457
		c-1.214-0.075-2.372,0.069-3.473,0.434c-1.102,0.364-2.074,0.886-2.917,1.567c-0.842,0.681-1.532,1.496-2.068,2.447
		c-0.535,0.952-0.85,1.963-0.939,3.033c-0.093,1.1,0.048,2.156,0.429,3.168c0.38,1.014,0.945,1.924,1.696,2.729
		c0.75,0.805,1.667,1.461,2.75,1.966c1.083,0.504,2.26,0.797,3.526,0.874c0.874,0.054,1.662,0.01,2.366-0.131
		c0.703-0.14,1.308-0.315,1.817-0.523c0.508-0.209,0.902-0.417,1.183-0.624c0.281-0.208,0.438-0.353,0.472-0.434
		c-0.015,0.331-0.023,0.496-0.039,0.826C83.651,84.198,83.644,84.363,83.628,84.694 M83.551,76.908
		c-0.065,1.35-0.604,2.463-1.623,3.335c-1.021,0.871-2.316,1.263-3.877,1.167c-1.561-0.097-2.8-0.644-3.705-1.634
		c-0.907-0.99-1.304-2.161-1.204-3.508c0.103-1.374,0.668-2.471,1.687-3.297c1.018-0.825,2.285-1.188,3.808-1.095
		c1.523,0.095,2.736,0.608,3.644,1.553C83.189,74.373,83.617,75.532,83.551,76.908"/>
	<path clip-path="url(#SVGID_2_)" d="M98.254,81.859c-1.364-0.012-2.045-0.02-3.409-0.043c-0.022,1.307-0.033,1.96-0.055,3.266
		c4.016,0.067,6.024,0.076,10.042,0.044c-0.012-1.307-0.018-1.96-0.027-3.267c-1.131,0.01-1.696,0.012-2.826,0.014
		c-0.001-0.579-0.001-0.867-0.002-1.447c0.875-0.762,1.312-1.145,2.178-1.91c0.418,0.548,0.854,1.104,1.308,1.663
		c0.452,0.562,0.906,1.114,1.361,1.66c-0.196,0.002-0.296,0.003-0.493,0.006c0.015,1.306,0.022,1.959,0.039,3.266
		c3.636-0.044,5.454-0.086,9.09-0.212c-0.046-1.306-0.069-1.958-0.114-3.264c-1.668,0.058-2.502,0.082-4.171,0.122
		c-0.771-0.918-1.527-1.834-2.271-2.743s-1.478-1.828-2.196-2.756c0.64-0.561,1.265-1.135,1.872-1.726
		c0.604-0.589,1.223-1.167,1.854-1.732c1.087-0.024,1.631-0.039,2.718-0.071c-0.039-1.306-0.059-1.959-0.097-3.265
		c-3.495,0.104-5.243,0.136-8.74,0.161c0.01,1.306,0.016,1.959,0.024,3.266c0.648-0.005,0.973-0.008,1.623-0.015
		c-1.58,1.424-2.378,2.132-3.987,3.539c-0.007-6.238-0.013-12.478-0.02-18.716c16.379,0,36.259-0.895,53.423-2.981
		c-0.746-1.026-1.219-2.239-1.372-3.555c-15.133,1.827-33.141,2.816-52.056,2.816c-24.228,0-46.99-1.616-64.094-4.549
		c-24.848-4.261-25.134-9.011-25.134-9.212c0-0.128,0.127-2.104,6.638-4.623c-0.294-1.199-0.437-2.461-0.427-3.766
		C12.744,34.117,9,36.893,9,40.218c0,12.431,52.222,17.187,89.454,17.467C98.387,65.743,98.321,73.802,98.254,81.859"/>
	<path clip-path="url(#SVGID_2_)" d="M136.042,74.521c-0.354-0.965-0.816-1.844-1.387-2.638c-0.569-0.793-1.206-1.465-1.91-2.015
		c-0.703-0.55-1.479-0.964-2.331-1.244c-0.851-0.279-1.724-0.388-2.619-0.324c-1.214,0.086-2.335,0.373-3.364,0.865
		c-1.032,0.491-1.919,1.122-2.665,1.895s-1.323,1.664-1.729,2.678s-0.583,2.071-0.53,3.172c0.055,1.13,0.334,2.172,0.846,3.126
		c0.509,0.953,1.188,1.782,2.039,2.48c0.849,0.699,1.836,1.229,2.962,1.588c1.125,0.358,2.322,0.494,3.587,0.404
		c1.145-0.08,2.185-0.353,3.118-0.812c0.931-0.46,1.743-1.066,2.433-1.817c-1-0.91-1.498-1.367-2.487-2.284
		c-0.821,0.95-1.926,1.477-3.3,1.573c-0.926,0.066-1.768-0.051-2.52-0.347c-0.753-0.297-1.371-0.722-1.853-1.273
		c1.981-0.809,3.945-1.632,5.89-2.47C132.165,76.24,134.105,75.389,136.042,74.521 M123.165,76.386
		c-0.014-1.269,0.426-2.35,1.312-3.246c0.884-0.896,2.066-1.393,3.554-1.498c0.612-0.043,1.184,0.06,1.716,0.31
		c0.532,0.251,1.022,0.594,1.468,1.028c-1.339,0.576-2.675,1.15-4.009,1.725S124.525,75.839,123.165,76.386"/>
	<path clip-path="url(#SVGID_2_)" d="M148.288,78.947c-0.229,0.126-0.439,0.207-0.634,0.245c-0.193,0.038-0.305,0.057-0.335,0.061
		c-0.512,0.062-0.943,0.093-1.294,0.092s-0.715-0.049-1.091-0.145c-0.073-0.641-0.11-0.961-0.184-1.602
		c-1.315,0.15-1.974,0.224-3.29,0.363c0.151,1.431,0.228,2.146,0.38,3.576c0.661,0.54,1.518,0.884,2.567,1.03
		c1.049,0.146,2.131,0.151,3.242,0.019c1.2-0.145,2.154-0.445,2.857-0.896c0.702-0.45,1.229-0.965,1.578-1.539
		c0.349-0.574,0.568-1.146,0.658-1.715c0.089-0.567,0.108-1.043,0.058-1.426c-0.115-0.847-0.374-1.527-0.775-2.043
		c-0.4-0.518-0.877-0.928-1.426-1.23c-0.551-0.304-1.137-0.541-1.757-0.713c-0.621-0.172-1.201-0.322-1.74-0.45
		s-1.01-0.272-1.418-0.434c-0.406-0.16-0.667-0.406-0.754-0.723c-0.118-0.419-0.033-0.794,0.231-1.089s0.72-0.48,1.368-0.56
		c0.442-0.052,0.893-0.039,1.353,0.042c0.088,0.706,0.132,1.059,0.219,1.764c1.297-0.161,1.945-0.245,3.24-0.418
		c-0.191-1.426-0.285-2.14-0.477-3.564c-0.362-0.286-0.766-0.511-1.213-0.675c-0.446-0.164-0.894-0.287-1.344-0.369
		c-0.45-0.081-0.886-0.123-1.311-0.127c-0.425-0.003-0.78,0.013-1.068,0.047c-0.491,0.06-1.028,0.208-1.614,0.441
		c-0.587,0.235-1.119,0.566-1.597,0.994c-0.479,0.429-0.862,0.949-1.147,1.562c-0.286,0.613-0.384,1.345-0.293,2.194
		c0.104,0.96,0.362,1.708,0.779,2.245c0.418,0.537,0.918,0.933,1.501,1.188c0.583,0.252,1.198,0.432,1.841,0.537
		c0.644,0.104,1.237,0.215,1.778,0.33c0.542,0.114,0.993,0.28,1.351,0.5c0.361,0.22,0.562,0.582,0.589,1.072
		c0.022,0.383-0.059,0.688-0.229,0.904S148.517,78.822,148.288,78.947"/>
</g>
</svg>
