<?xml version="1.0" encoding="UTF-8"?>
<!DOCTYPE svg  PUBLIC '-//W3C//DTD SVG 1.1//EN'  'http://www.w3.org/Graphics/SVG/1.1/DTD/svg11.dtd'>
<svg width="185.9px" height="87.195px" enable-background="new 0 0 185.897 87.195" version="1.1" viewBox="0 0 185.897 87.195" xml:space="preserve" xmlns="http://www.w3.org/2000/svg" xmlns:xlink="http://www.w3.org/1999/xlink">
	<defs>
		<polyline id="b" points="0 106.79 0 0 185.9 0 185.9 106.79"/>
	</defs>
	<clipPath id="a">
		<use overflow="visible" xlink:href="#b"/>
	</clipPath>
	<path style="fill:#FFF;" d="m147.97 64.349c0.073 0.311 0.139 0.623 0.186 0.936 0.164 1.04 0.205 2.076 0.136 3.095 4.01 1.513 6.045 3.02 6.045 4.207 0 3.82-21.031 10.944-61.239 10.944s-61.242-7.124-61.242-10.944c0-1.18 2.014-2.675 5.975-4.18-0.314-1.229-0.415-2.507-0.296-3.812-5.721 2.087-9.308 4.723-9.308 7.992 0 10.759 38.794 14.664 64.871 14.664 26.074 0 64.869-3.905 64.869-14.664-1e-3 -3.4-3.876-6.114-9.997-8.238" clip-path="url(#a)"/>
	<path style="fill:#FFF;" d="m176.34 22.758c-1.136 0.986-2.485 1.84-4.004 2.518 9.679 3.025 9.841 5.586 9.841 5.732 0 0.175-0.219 3.832-16.905 7.598-0.438 1.477-1.024 2.898-1.801 4.192 13.318-2.748 22.427-6.6 22.427-11.79 0-3.259-3.594-5.989-9.558-8.25" clip-path="url(#a)"/>
	<path style="fill:#FFF;" d="m23.862 33.437c10.005 0.907 19.834-7.876 20.561-18.213 0.28-3.985-1.627-6.796-4.465-7.067-2.518-0.241-3.418 1.795-3.418 1.795 2.205 0.223 3.649 2.226 3.347 5.314-0.754 7.706-6.99 15.148-15.095 14.373-4.52-0.431-7.178-3.544-6.438-8.752 1.176-8.275 8.124-16.842 16.968-16.185 4.474 0.332 6.043 2.726 6.043 2.726s0.511-0.542 0.586-1.35c0.195-2.112-1.475-4.538-6.422-5.12-11.034-1.298-20.481 9.91-22.069 19.455-1.087 6.535 2.285 12.288 10.402 13.024" clip-path="url(#a)"/>
	<path style="fill:#FFF;" d="m165.86 23.606c6.726-0.8 10.809-4.847 10.464-7.35-0.1-0.716-0.486-1.118-0.783-1.214-2.768 3.249-6.999 5.207-11.126 5.191 4.443-4.564 8.413-9.24 7.63-15.099-0.454-3.4-2.88-5.512-5.778-5.077-8.637 1.295-9.013 13.068-8.287 19.761 0.106 0.982 0.25 2.283 0.381 3.758-0.057-5e-3 -0.112-0.015-0.17-0.015-0.979 3.326-3.613 7.18-6.232 7.427-1.426 0.135-2.155-0.479-2.371-2.862-0.134-1.483 0.255-4.188 1.599-10.299 0 0-0.635-0.256-1.564-0.17-1.629 0.151-2.859 1.073-3.324 3.332-0.859 4.784-2.608 10.922-7.232 11.258-1.954 0.143-3.083-0.959-3.232-3.165-0.479-7.068 4.634-12.831 11.173-13.409 4.684-0.414 6.771 1.266 6.771 1.266s0.323-0.53 0.251-1.249c-0.197-1.976-2.287-4.036-7.15-3.584-8.396 0.781-15.386 7.537-15.736 15.9-2.198 2.451-5.817 5.189-9.91 5.366-2.005 0.086-3.611-0.668-3.979-2.912 6.218-1.673 13.148-5.554 12.772-11.905-0.181-3.063-2.507-4.772-5.876-4.516-7.145 0.544-11.577 8.035-11.589 14.784-2.268 2.369-5.837 4.924-9.953 4.975-2.292 0.028-3.78-1.049-3.986-3.936 7.253-3.365 15.597-10.906 15.269-19.694-0.119-3.185-2.073-5.345-5.125-5.002-9.286 1.043-14.402 14.987-14.649 23.713-2e-3 0.049 2e-3 0.095 1e-3 0.143-2.057 2.3-5.297 4.755-9.226 4.688-2.769-0.046-4.404-1.715-4.906-4.391 8.036-0.699 12.303-4.146 12.326-8.84 0.013-2.435-1.419-4.331-4.61-4.778 0.892-0.981 2.993-3.624 3.021-7.189 0.019-2.572-1.994-4.663-4.598-4.476-9.354 0.674-14.799 15.119-16.52 25.201-1.592 2.073-3.686 3.719-5.518 3.625-1.431-0.074-2.062-0.787-1.93-3.176 0.082-1.487 0.86-4.107 3.075-9.959 0 0-0.59-0.345-1.523-0.395-1.632-0.087-2.982 0.647-3.769 2.815-1.544 4.609-4.164 10.428-8.788 10.09-1.954-0.143-2.911-1.397-2.739-3.601 0.551-7.063 6.448-12.023 12.998-11.646 4.692 0.27 6.51 2.236 6.51 2.236s0.396-0.479 0.429-1.201c0.09-1.983-1.675-4.325-6.55-4.583-8.89-0.47-17.206 5.88-18.081 14.854-0.386 3.951 1.645 7.264 6.105 7.598 5.516 0.413 8.276-3.732 8.276-3.732-0.083 1.351 0.352 4.464 4.29 4.677 2.557 0.138 4.912-0.995 6.73-2.553 0.218 1.522 1.307 2.303 2.562 2.352 0.72 0.027 1.354-0.221 1.354-0.221 0.124-2.072 0.909-5.204 2.223-7.643 0.607 4.58 3.465 8.615 8.8 8.713 4.401 0.08 8.331-2.044 10.689-4.455 1.067 2.81 3.474 4.56 7.138 4.519 4.63-0.051 8.836-2.267 11.374-4.721 1.084 2.652 3.468 4.39 7.507 4.22 4.423-0.186 8.442-2.451 10.922-4.943 0.977 2.537 3.221 4.192 6.598 3.952 5.516-0.393 7.647-4.895 7.647-4.895 0.113 1.35 0.996 4.367 4.926 4.005 3.534-0.324 6.339-2.997 7.833-5.685 0.078 5.53-0.632 11.167-3.864 12.2-0.988 0.314-1.909-0.543-2.016-1.666-0.144-1.527 1.152-2.694 1.152-2.694s-0.636-0.572-1.742-0.468c-2.354 0.221-4.114 2.274-3.915 4.567 0.228 2.607 2.499 4.331 5.988 3.892 9.246-1.161 9.351-14.578 8.37-21.746 0.914 0.123 2.112 0.166 3.193 0.037m-57.827-14.362c1.099-0.024 1.714 0.682 1.743 1.899 0.136 5.369-5.117 11.733-10.944 14.792 0.849-7.27 5.305-16.605 9.201-16.691m-22.89-1.208c0.96 0.017 1.41 0.52 1.397 1.422-0.08 5.324-6.528 7.418-10.793 13.012 1.984-6.165 6.103-14.491 9.396-14.434m-8.627 18.295c2.532-3.938 5.96-7.101 8.99-7.051 1.585 0.026 2.322 0.8 2.307 1.928-0.036 2.933-4.829 5.191-11.297 5.123m47.065-8.65c1.487-0.072 2.043 0.755 2.102 1.882 0.165 3.2-3.684 6.208-8.642 7.834 0.161-4.701 3.24-9.557 6.54-9.716m42.437-13.684c1.365-0.168 1.956 0.848 2.114 2.101 0.55 4.342-3.721 9.19-6.134 12.052-0.894-8.708 1.247-13.811 4.02-14.153" clip-path="url(#a)"/>
	<path style="fill:#FFF;" d="m56.313 64.761c0.187-1.909 0.28-2.864 0.467-4.773-0.701-0.622-1.496-1.139-2.387-1.551-0.891-0.411-1.869-0.676-2.935-0.796-1.211-0.136-2.366-0.056-3.47 0.24-1.105 0.298-2.093 0.756-2.969 1.38-0.875 0.624-1.605 1.396-2.187 2.319-0.583 0.924-0.951 1.931-1.099 3.023-0.15 1.122-0.065 2.197 0.267 3.227 0.329 1.031 0.848 1.97 1.559 2.811 0.71 0.842 1.586 1.543 2.629 2.1s2.197 0.907 3.459 1.048c1.081 0.122 2.113 0.073 3.091-0.143 0.979-0.216 1.885-0.562 2.718-1.034-0.797-1.124-1.192-1.688-1.977-2.816-0.993 0.589-2.148 0.812-3.458 0.665-1.55-0.174-2.756-0.782-3.607-1.815-0.853-1.034-1.19-2.224-1.021-3.564 0.171-1.366 0.79-2.434 1.846-3.208 1.055-0.773 2.334-1.072 3.846-0.902 0.814 0.091 1.568 0.326 2.264 0.704-0.117 1.103-0.175 1.653-0.292 2.755 1.301 0.136 1.953 0.203 3.256 0.33" clip-path="url(#a)"/>
	<path style="fill:#FFF;" d="m74.629 75.483c2.693 0.126 4.04 0.179 6.734 0.26 0.04-1.306 0.06-1.958 0.1-3.265-1.364-0.041-2.045-0.064-3.408-0.117 0.19-4.892 0.285-7.338 0.475-12.229-1.199-0.047-1.799-0.072-2.999-0.128-0.015 0.33-0.059 0.659-0.133 0.987-0.073 0.327-0.118 0.643-0.132 0.945 4e-3 -0.083-0.134-0.255-0.412-0.517-0.279-0.262-0.659-0.536-1.138-0.822-0.48-0.287-1.048-0.559-1.701-0.815-0.653-0.258-1.37-0.409-2.151-0.457-1.214-0.075-2.372 0.069-3.473 0.434-1.102 0.364-2.074 0.886-2.917 1.567-0.842 0.681-1.532 1.496-2.068 2.447-0.535 0.952-0.85 1.963-0.939 3.033-0.093 1.1 0.048 2.156 0.429 3.168 0.38 1.014 0.945 1.924 1.696 2.729 0.75 0.805 1.667 1.461 2.75 1.966 1.083 0.504 2.26 0.797 3.526 0.874 0.874 0.054 1.662 0.01 2.366-0.131 0.703-0.14 1.308-0.315 1.817-0.523 0.508-0.209 0.902-0.417 1.183-0.624 0.281-0.208 0.438-0.353 0.472-0.434-0.015 0.331-0.023 0.496-0.039 0.826-0.015 0.33-0.023 0.495-0.038 0.826m-0.078-7.786c-0.065 1.35-0.604 2.463-1.623 3.335-1.021 0.871-2.316 1.263-3.877 1.167-1.561-0.097-2.8-0.644-3.705-1.634-0.907-0.99-1.304-2.161-1.204-3.508 0.103-1.374 0.668-2.471 1.687-3.297 1.018-0.825 2.285-1.188 3.808-1.095 1.523 0.095 2.736 0.608 3.644 1.553 0.909 0.944 1.336 2.103 1.27 3.479" clip-path="url(#a)"/>
	<path style="fill:#FFF;" d="m89.254 72.648c-1.364-0.012-2.045-0.02-3.409-0.043-0.022 1.307-0.033 1.96-0.055 3.266 4.016 0.067 6.024 0.076 10.042 0.044-0.012-1.307-0.018-1.96-0.027-3.267-1.131 0.01-1.696 0.012-2.826 0.014-1e-3 -0.579-1e-3 -0.867-2e-3 -1.447 0.875-0.762 1.312-1.145 2.178-1.91 0.418 0.548 0.854 1.104 1.308 1.663 0.452 0.562 0.906 1.114 1.361 1.66-0.196 2e-3 -0.296 3e-3 -0.493 6e-3 0.015 1.306 0.022 1.959 0.039 3.266 3.636-0.044 5.454-0.086 9.09-0.212-0.046-1.306-0.069-1.958-0.114-3.264-1.668 0.058-2.502 0.082-4.171 0.122-0.771-0.918-1.527-1.834-2.271-2.743s-1.478-1.828-2.196-2.756c0.64-0.561 1.265-1.135 1.872-1.726 0.604-0.589 1.223-1.167 1.854-1.732 1.087-0.024 1.631-0.039 2.718-0.071-0.039-1.306-0.059-1.959-0.097-3.265-3.495 0.104-5.243 0.136-8.74 0.161 0.01 1.306 0.016 1.959 0.024 3.266 0.648-5e-3 0.973-8e-3 1.623-0.015-1.58 1.424-2.378 2.132-3.987 3.539-7e-3 -6.238-0.013-12.478-0.02-18.716 16.379 0 36.259-0.895 53.423-2.981-0.746-1.026-1.219-2.239-1.372-3.555-15.133 1.827-33.141 2.816-52.056 2.816-24.228 0-46.99-1.616-64.094-4.549-24.85-4.261-25.136-9.011-25.136-9.212 0-0.128 0.127-2.104 6.638-4.623-0.294-1.199-0.437-2.461-0.427-3.766-6.187 2.288-9.931 5.064-9.931 8.389 0 12.431 52.222 17.187 89.454 17.467-0.067 8.058-0.133 16.117-0.2 24.174" clip-path="url(#a)"/>
	<path style="fill:#FFF;" d="m127.04 65.311c-0.354-0.965-0.816-1.844-1.387-2.638-0.569-0.793-1.206-1.465-1.91-2.015-0.703-0.55-1.479-0.964-2.331-1.244-0.851-0.279-1.724-0.388-2.619-0.324-1.214 0.086-2.335 0.373-3.364 0.865-1.032 0.491-1.919 1.122-2.665 1.895s-1.323 1.664-1.729 2.678-0.583 2.071-0.53 3.172c0.055 1.13 0.334 2.172 0.846 3.126 0.509 0.953 1.188 1.782 2.039 2.48 0.849 0.699 1.836 1.229 2.962 1.588 1.125 0.358 2.322 0.494 3.587 0.404 1.145-0.08 2.185-0.353 3.118-0.812 0.931-0.46 1.743-1.066 2.433-1.817-1-0.91-1.498-1.367-2.487-2.284-0.821 0.95-1.926 1.477-3.3 1.573-0.926 0.066-1.768-0.051-2.52-0.347-0.753-0.297-1.371-0.722-1.853-1.273 1.981-0.809 3.945-1.632 5.89-2.47 1.944-0.839 3.884-1.69 5.82-2.557m-12.876 1.864c-0.014-1.269 0.426-2.35 1.312-3.246 0.884-0.896 2.066-1.393 3.554-1.498 0.612-0.043 1.184 0.06 1.716 0.31 0.532 0.251 1.022 0.594 1.468 1.028-1.339 0.576-2.675 1.15-4.009 1.725s-2.681 1.134-4.041 1.681" clip-path="url(#a)"/>
	<path style="fill:#FFF;" d="m139.29 69.736c-0.229 0.126-0.439 0.207-0.634 0.245-0.193 0.038-0.305 0.057-0.335 0.061-0.512 0.062-0.943 0.093-1.294 0.092s-0.715-0.049-1.091-0.145c-0.073-0.641-0.11-0.961-0.184-1.602-1.315 0.15-1.974 0.224-3.29 0.363 0.151 1.431 0.228 2.146 0.38 3.576 0.661 0.54 1.518 0.884 2.567 1.03s2.131 0.151 3.242 0.019c1.2-0.145 2.154-0.445 2.857-0.896 0.702-0.45 1.229-0.965 1.578-1.539s0.568-1.146 0.658-1.715c0.089-0.567 0.108-1.043 0.058-1.426-0.115-0.847-0.374-1.527-0.775-2.043-0.4-0.518-0.877-0.928-1.426-1.23-0.551-0.304-1.137-0.541-1.757-0.713-0.621-0.172-1.201-0.322-1.74-0.45s-1.01-0.272-1.418-0.434c-0.406-0.16-0.667-0.406-0.754-0.723-0.118-0.419-0.033-0.794 0.231-1.089s0.72-0.48 1.368-0.56c0.442-0.052 0.893-0.039 1.353 0.042 0.088 0.706 0.132 1.059 0.219 1.764 1.297-0.161 1.945-0.245 3.24-0.418-0.191-1.426-0.285-2.14-0.477-3.564-0.362-0.286-0.766-0.511-1.213-0.675-0.446-0.164-0.894-0.287-1.344-0.369-0.45-0.081-0.886-0.123-1.311-0.127-0.425-3e-3 -0.78 0.013-1.068 0.047-0.491 0.06-1.028 0.208-1.614 0.441-0.587 0.235-1.119 0.566-1.597 0.994-0.479 0.429-0.862 0.949-1.147 1.562-0.286 0.613-0.384 1.345-0.293 2.194 0.104 0.96 0.362 1.708 0.779 2.245 0.418 0.537 0.918 0.933 1.501 1.188 0.583 0.252 1.198 0.432 1.841 0.537 0.644 0.104 1.237 0.215 1.778 0.33 0.542 0.114 0.993 0.28 1.351 0.5 0.361 0.22 0.562 0.582 0.589 1.072 0.022 0.383-0.059 0.688-0.229 0.904s-0.371 0.387-0.599 0.512" clip-path="url(#a)"/>
</svg>
